<?xml version="1.0" encoding="UTF-8" standalone="no"?>
<!DOCTYPE svg PUBLIC "-//W3C//DTD SVG 1.1//EN" "http://www.w3.org/Graphics/SVG/1.1/DTD/svg11.dtd">
<svg version="1.1" xmlns="http://www.w3.org/2000/svg" xmlns:xlink="http://www.w3.org/1999/xlink" preserveAspectRatio="xMidYMid meet" viewBox="0 0 200 195" width="200" height="195"><defs><path d="M0 100C0 144.25 28.63 181.62 68.38 194.87C73.38 195.74 75.25 192.74 75.25 190.12C75.25 187.74 75.13 179.87 75.13 171.49C50 176.12 43.5 165.37 41.5 159.75C40.38 156.87 35.5 148 31.25 145.62C27.75 143.75 22.75 139.12 31.13 139C39 138.87 44.63 146.25 46.5 149.25C55.5 164.37 69.88 160.12 75.63 157.5C76.5 151 79.13 146.62 82 144.12C59.75 141.62 36.5 133 36.5 94.75C36.5 83.87 40.38 74.87 46.75 67.87C45.75 65.37 42.25 55.12 47.75 41.37C47.75 41.37 56.13 38.75 75.25 51.62C83.25 49.37 91.75 48.25 100.25 48.25C108.75 48.25 117.25 49.37 125.25 51.62C144.38 38.62 152.75 41.37 152.75 41.37C158.25 55.12 154.75 65.37 153.75 67.87C160.13 74.87 164 83.75 164 94.75C164 133.12 140.63 141.62 118.38 144.12C122 147.25 125.13 153.25 125.13 162.62C125.13 175.99 125 186.74 125 190.12C125 192.74 126.88 195.87 131.88 194.87C171.38 181.62 200 144.12 200 100C200 44.75 155.25 0 100 0C44.75 0 0 44.75 0 100Z" id="b6grugOeZ"></path></defs><g><g><g><use xlink:href="#b6grugOeZ" opacity="1" fill="#4f46e5" fill-opacity="1"></use><g><use xlink:href="#b6grugOeZ" opacity="1" fill-opacity="0" stroke="#000000" stroke-width="1" stroke-opacity="0"></use></g></g></g></g></svg>