<?xml version="1.0" encoding="UTF-8" standalone="no"?>
<!DOCTYPE svg PUBLIC "-//W3C//DTD SVG 1.1//EN" "http://www.w3.org/Graphics/SVG/1.1/DTD/svg11.dtd">
<svg version="1.1" xmlns="http://www.w3.org/2000/svg" xmlns:xlink="http://www.w3.org/1999/xlink" preserveAspectRatio="xMidYMid meet" viewBox="0 0 640 615" width="640" height="615"><defs><path d="M147.35 602.61C146.93 602.23 185.61 547.45 233.31 480.87C239.09 472.8 268 432.45 320.03 359.81C371.76 431.8 400.5 471.8 406.25 479.79C453.66 545.78 492.46 600.49 492.46 601.37C492.46 602.24 488.06 605.09 482.69 607.7C482.04 608.02 478.79 609.6 472.93 612.44C467.9 609.12 465.11 607.27 464.55 606.9C450.92 597.88 438.17 595.18 409.27 595.18C391.36 595.18 379.96 594.14 373.73 591.95C363.01 588.16 341.29 573.02 330.66 561.93C326.56 557.65 322.31 554.16 321.19 554.16C320.08 554.16 312.12 560.86 303.5 569.04C294.88 577.23 283.59 586.41 278.42 589.43C266.4 596.46 246.13 599.66 217.92 598.99C198.53 598.52 194.46 599.06 186.83 603.13C182 605.71 176.78 609.35 175.23 611.21C171.68 615.49 171.84 615.51 158.91 608.85C152.97 605.79 147.77 602.98 147.35 602.61ZM298.3 520.7C302.96 509 303.42 504.91 303.01 478.6C302.25 430.54 305.87 429.09 255.42 497.76C231.32 530.56 211.4 558.37 211.16 559.56C210.55 562.56 224.07 566.85 234.62 566.99C239.45 567.06 248.62 565.56 254.99 563.67C270.91 558.94 291 539.01 298.3 520.7ZM431.02 560.49C432.12 558.71 342.78 441.35 339.45 440.21C336.59 439.22 334.86 492.94 337.33 506.29C345.32 549.51 380.96 574.59 420.3 564.69C425.59 563.36 430.42 561.47 431.02 560.49ZM96.74 549.98C101.36 539.05 99.26 521.88 90.17 496.24C78.25 462.64 79.82 444.28 97.65 408.97C101.22 401.9 103.83 395.85 103.46 395.52C103.08 395.19 97.92 392.48 91.98 389.49C75.71 381.31 55.07 365.34 47.79 355.29C44.04 350.12 38.05 335.89 33.58 321.57C26.21 297.97 25.21 296.15 12.73 283.52C0.67 271.33 -0.35 269.57 0.12 261.63C0.4 256.88 1.26 251.87 2.04 250.51C3.03 248.8 47 261.29 144.74 291.04C222.45 314.7 286.18 334.27 286.37 334.54C287.01 335.47 114.73 574.64 113 575.22C112.05 575.54 107.3 571.66 102.44 566.6C93.66 557.46 93.62 557.35 96.74 549.98ZM217.38 380.67C218.91 376.69 174.98 387.86 158.83 395.56C130.5 409.06 111.3 442.25 115.52 470.41C116.93 479.82 128.32 502.35 131.67 502.35C132.68 502.35 152.1 475.67 174.84 443.06C197.58 410.46 216.72 382.38 217.38 380.67ZM203.06 340.48C198.28 337.91 65.36 292.93 62.54 292.93C57.74 292.93 61.77 319.54 68.43 331.77C86.54 365.05 124.81 374.6 169.7 357.06C203.26 343.95 206.51 342.33 203.06 340.48ZM355.09 334.58C356.56 333.12 627.6 250.19 633.87 249.29C637.56 248.76 638.37 250.24 639.47 259.47C640.71 269.99 640.53 270.45 632.11 277.73C619.93 288.28 612.09 301.66 605.57 323.03C602.47 333.19 598.18 344.91 596.04 349.06C589.39 361.94 569.21 378.61 546.43 390.05C541.09 392.73 536.41 395.2 536.03 395.53C535.66 395.86 537.96 401.29 541.16 407.6C560.66 446.08 561.93 461.43 548.75 499.43C539.29 526.72 538.24 535.81 543.01 549.31C543.21 549.88 544.22 552.76 546.05 557.95C540.61 563.29 537.59 566.26 536.99 566.85C532 571.74 527.42 575.75 526.81 575.75C526.2 575.75 487.04 521.76 439.78 455.78C392.52 389.8 354.41 335.26 355.09 334.58ZM524.43 457.14C522.68 432.81 504.37 406.88 481.1 395.76C465.43 388.28 420.51 376.48 421.95 380.24C424 385.59 506.24 502.35 507.96 502.35C508.9 502.35 512.01 498.7 514.87 494.25C522.53 482.32 525.44 471.05 524.43 457.14ZM578.32 306.49C579.03 297.64 578.61 292.93 577.1 292.93C574.25 292.93 436.1 339.93 434.63 341.4C434.05 341.99 435.89 343.36 438.73 344.45C441.56 345.54 452.35 349.94 462.69 354.24C488.1 364.79 495.1 366.3 514.24 365.4C526.31 364.83 533.81 363.12 542.7 358.92C563.35 349.15 576.44 329.88 578.32 306.49ZM341.33 150.16L341.33 1.16C348.78 2.05 352.92 2.55 353.75 2.64C360.58 3.46 366.73 4.74 367.42 5.5C368.11 6.25 369.81 10.87 371.19 15.75C374.8 28.44 380.13 34.26 401.77 49.08C434.82 71.72 442.62 83.53 450.42 122.8C450.66 124.05 451.9 130.25 454.11 141.42C471.21 140.7 480.7 140.31 482.6 140.23C518.45 138.72 526.25 141.04 553.36 161.23C574.01 176.61 588.33 182.8 603.35 182.86C611.78 182.88 612.6 183.47 618.02 193.3C618.4 193.99 620.32 197.47 623.76 203.71C617.73 205.72 614.37 206.83 613.7 207.06C608.17 208.89 544.62 230.37 472.49 254.78C463.75 257.74 420.03 272.53 341.33 299.16L341.33 150.16ZM547.09 202.33C550.27 199.39 534.71 182.27 522.68 175.49C511.95 169.44 509.04 168.8 492.46 168.84C470.92 168.91 459.86 173.29 442.99 188.47C434.04 196.52 403.94 239.55 403.94 244.3C403.94 246.45 406.17 245.85 480.59 223.44C516.21 212.71 546.13 203.21 547.09 202.33ZM418.59 142.79C419.78 124.19 415.51 107.63 406.19 94.77C399.1 84.98 380.02 72.77 371.77 72.74C371.42 72.74 369.69 72.73 366.58 72.72C367.43 88.47 367.9 97.22 367.99 98.96C368.77 113.4 369.4 147.4 369.4 174.53C369.4 201.65 370.13 223.78 371.02 223.71C371.91 223.64 380.41 213.97 389.91 202.24C411.14 176.01 417.28 163.29 418.59 142.79ZM21.37 203.88C18.02 202.59 18.16 201.61 22.96 193.03C28.11 183.8 28.55 183.55 43.41 181.25C61.18 178.5 70.73 173.92 89.61 159.08C110.24 142.87 120.58 138.99 143.79 138.76C154.48 138.65 168.57 139.27 175.1 140.14C175.89 140.24 179.85 140.76 186.97 141.7C189.21 130.2 190.45 123.81 190.7 122.54C195.48 97.98 201.99 80.69 209.8 71.79C213.21 67.91 225.25 58.17 236.56 50.15C260.64 33.09 267.17 25.98 270.62 13.09C272.18 7.23 274.41 3.58 276.48 3.5C278.31 3.43 284.42 2.62 290.06 1.69C290.74 1.58 294.16 1.01 300.32 0C300.32 89.17 300.32 138.72 300.32 148.62C300.32 266.16 299.75 297.22 297.62 297.11C296.13 297.03 234.2 276.34 159.99 251.13C85.77 225.93 23.39 204.66 21.37 203.88ZM198.79 188.38C168.53 160.07 128.73 159.62 102.85 187.28C97.47 193.04 93.06 198.72 93.06 199.91C93.06 201.1 99.62 204.04 107.63 206.44C115.65 208.84 147.46 218.52 178.34 227.95C238.94 246.45 237.71 246.12 237.71 243.99C237.71 239.46 207.97 196.96 198.79 188.38ZM272.25 70.27C269.33 71.17 267.72 71.67 267.39 71.77C248.36 77.66 233.45 91.38 226.78 109.16C220.29 126.46 221.45 153.21 229.42 169.87C235.01 181.57 266.72 221.69 270.37 221.69C271.41 221.69 272.25 187.62 272.25 145.98C272.25 145.98 272.25 120.74 272.25 70.27Z" id="d4HK243t4p"></path></defs><g><g><g><use xlink:href="#d4HK243t4p" opacity="1" fill="#4f46e5" fill-opacity="1"></use><g><use xlink:href="#d4HK243t4p" opacity="1" fill-opacity="0" stroke="#000000" stroke-width="0.26" stroke-opacity="0"></use></g></g></g></g></svg>